<mxfile host="app.diagrams.net" agent="Mozilla/5.0 (Macintosh; Intel Mac OS X 10_15_7) AppleWebKit/537.36 (KHTML, like Gecko) Chrome/128.0.0.0 Safari/537.36" version="24.7.16">
  <diagram name="Page-1" id="rYKvM6vl1fVqx-18abnA">
    <mxGraphModel dx="1434" dy="707" grid="1" gridSize="10" guides="1" tooltips="1" connect="1" arrows="1" fold="1" page="1" pageScale="1" pageWidth="827" pageHeight="1169" math="0" shadow="0">
      <root>
        <mxCell id="0" />
        <mxCell id="1" parent="0" />
        <mxCell id="rrJE0JNTDXxumXJNKVJH-8" style="edgeStyle=orthogonalEdgeStyle;rounded=0;orthogonalLoop=1;jettySize=auto;html=1;exitX=0.5;exitY=1;exitDx=0;exitDy=0;entryX=0.5;entryY=0;entryDx=0;entryDy=0;" edge="1" parent="1" source="rrJE0JNTDXxumXJNKVJH-1" target="rrJE0JNTDXxumXJNKVJH-2">
          <mxGeometry relative="1" as="geometry" />
        </mxCell>
        <mxCell id="rrJE0JNTDXxumXJNKVJH-1" value="Start: User uploads a batch of images" style="ellipse;whiteSpace=wrap;html=1;" vertex="1" parent="1">
          <mxGeometry x="340" y="120" width="120" height="80" as="geometry" />
        </mxCell>
        <mxCell id="rrJE0JNTDXxumXJNKVJH-9" style="edgeStyle=orthogonalEdgeStyle;rounded=0;orthogonalLoop=1;jettySize=auto;html=1;exitX=0.5;exitY=1;exitDx=0;exitDy=0;entryX=0.5;entryY=0;entryDx=0;entryDy=0;" edge="1" parent="1" source="rrJE0JNTDXxumXJNKVJH-2" target="rrJE0JNTDXxumXJNKVJH-3">
          <mxGeometry relative="1" as="geometry" />
        </mxCell>
        <mxCell id="rrJE0JNTDXxumXJNKVJH-2" value="Display images in gallery" style="rounded=0;whiteSpace=wrap;html=1;" vertex="1" parent="1">
          <mxGeometry x="340" y="240" width="120" height="60" as="geometry" />
        </mxCell>
        <mxCell id="rrJE0JNTDXxumXJNKVJH-10" style="edgeStyle=orthogonalEdgeStyle;rounded=0;orthogonalLoop=1;jettySize=auto;html=1;exitX=0.5;exitY=1;exitDx=0;exitDy=0;entryX=0.5;entryY=0;entryDx=0;entryDy=0;" edge="1" parent="1" source="rrJE0JNTDXxumXJNKVJH-3" target="rrJE0JNTDXxumXJNKVJH-4">
          <mxGeometry relative="1" as="geometry" />
        </mxCell>
        <mxCell id="rrJE0JNTDXxumXJNKVJH-3" value="User clicks on predict buttom" style="rhombus;whiteSpace=wrap;html=1;" vertex="1" parent="1">
          <mxGeometry x="315" y="350" width="170" height="130" as="geometry" />
        </mxCell>
        <mxCell id="rrJE0JNTDXxumXJNKVJH-11" style="edgeStyle=orthogonalEdgeStyle;rounded=0;orthogonalLoop=1;jettySize=auto;html=1;" edge="1" parent="1" source="rrJE0JNTDXxumXJNKVJH-4" target="rrJE0JNTDXxumXJNKVJH-5">
          <mxGeometry relative="1" as="geometry" />
        </mxCell>
        <mxCell id="rrJE0JNTDXxumXJNKVJH-4" value="Show bounding boxes on images" style="rounded=0;whiteSpace=wrap;html=1;" vertex="1" parent="1">
          <mxGeometry x="340" y="525" width="120" height="60" as="geometry" />
        </mxCell>
        <mxCell id="rrJE0JNTDXxumXJNKVJH-12" style="edgeStyle=orthogonalEdgeStyle;rounded=0;orthogonalLoop=1;jettySize=auto;html=1;exitX=0.5;exitY=1;exitDx=0;exitDy=0;entryX=0.5;entryY=0;entryDx=0;entryDy=0;" edge="1" parent="1" source="rrJE0JNTDXxumXJNKVJH-5" target="rrJE0JNTDXxumXJNKVJH-6">
          <mxGeometry relative="1" as="geometry" />
        </mxCell>
        <mxCell id="rrJE0JNTDXxumXJNKVJH-5" value="User clicks on crop button" style="rhombus;whiteSpace=wrap;html=1;" vertex="1" parent="1">
          <mxGeometry x="315" y="640" width="170" height="120" as="geometry" />
        </mxCell>
        <mxCell id="rrJE0JNTDXxumXJNKVJH-13" style="edgeStyle=orthogonalEdgeStyle;rounded=0;orthogonalLoop=1;jettySize=auto;html=1;exitX=0.5;exitY=1;exitDx=0;exitDy=0;entryX=0.5;entryY=0;entryDx=0;entryDy=0;" edge="1" parent="1" source="rrJE0JNTDXxumXJNKVJH-6" target="rrJE0JNTDXxumXJNKVJH-7">
          <mxGeometry relative="1" as="geometry" />
        </mxCell>
        <mxCell id="rrJE0JNTDXxumXJNKVJH-6" value="Cropped images updated in gallery" style="rounded=0;whiteSpace=wrap;html=1;" vertex="1" parent="1">
          <mxGeometry x="340" y="800" width="120" height="60" as="geometry" />
        </mxCell>
        <mxCell id="rrJE0JNTDXxumXJNKVJH-7" value="End" style="ellipse;whiteSpace=wrap;html=1;" vertex="1" parent="1">
          <mxGeometry x="340" y="900" width="120" height="80" as="geometry" />
        </mxCell>
      </root>
    </mxGraphModel>
  </diagram>
</mxfile>
